<svg version="1.1" id="Layer_1" xmlns="http://www.w3.org/2000/svg" xmlns:xlink="http://www.w3.org/1999/xlink" x="0px" y="0px"viewBox="0 0 512 512" style="enable-background:new 0 0 512 512;" xml:space="preserve"><g><g><g><path d="M416,213.333h-33.833c-2.802,0-5.552-1.146-7.542-3.125l-8.833-8.833c-6.042-6.042-14.083-9.375-22.625-9.375h-46.333c-8.542,0-16.583,3.333-22.625,9.375l-8.833,8.833c-1.99,1.979-4.74,3.125-7.542,3.125H224c-17.646,0-32,14.354-32,32v128c0,17.646,14.354,32,32,32h192c17.646,0,32-14.354,32-32v-128C448,227.688,433.646,213.333,416,213.333z M320,373.333c-35.292,0-64-28.708-64-64c0-35.292,28.708-64,64-64s64,28.708,64,64C384,344.625,355.292,373.333,320,373.333z"/><circle cx="320" cy="309.333" r="42.667"/><path d="M234.667,85.333c43.229,0,79.479,32.604,84.323,75.854c0.604,5.396,5.177,9.479,10.604,9.479h13.573c14.24,0,27.635,5.542,37.719,15.646l2.594,2.583c2,1.979,4.708,3.104,7.531,3.104H394c5.625,0,10.281-4.375,10.646-9.979l0.25-3.25c0.229-2.688,0.438-5.375,0.438-8.104C405.333,76.563,328.771,0,234.667,0S64,76.563,64,170.667c0,28.271,7.073,56.271,20.49,81.104l66.177,119.688c1.906,3.458,5.521,5.5,9.333,5.5c0.885,0,1.781-0.104,2.667-0.333c4.708-1.229,8-5.458,8-10.333V245.333c0-3.625,0.396-7.25,1.198-11.063c0.677-3.208-0.156-6.563-2.271-9.063c-13.25-15.813-20.26-34.667-20.26-54.542C149.333,123.604,187.615,85.333,234.667,85.333z"/><path d="M270.052,426.667H224c-8.01,0-16.021-2-23.823-5.917c-4.198-2.104-9.25-1.271-12.49,2.125c-3.24,3.375-3.906,8.458-1.646,12.563l39.292,71.063c1.875,3.396,5.448,5.5,9.333,5.5c3.885,0,7.458-2.104,9.333-5.5l35.385-64c1.833-3.313,1.771-7.333-0.146-10.583C277.323,428.667,273.823,426.667,270.052,426.667z"/></g></g></g></svg>